<svg xmlns="http://www.w3.org/2000/svg" width="1024" height="1024" viewBox="0 0 1024 1024">
  <rect x="64" y="64" width="896" height="896" rx="180" fill="#1e1e1e"/>
  <rect x="64" y="64" width="896" height="896" rx="180" fill="none" stroke="#0e639c" stroke-width="24"/>
  <!-- left (old) panel -->
  <rect x="168" y="232" width="300" height="68" rx="14" fill="#3a2326"/>
  <rect x="168" y="324" width="300" height="68" rx="14" fill="#3a2326"/>
  <rect x="168" y="416" width="300" height="68" rx="14" fill="#2a2d2e"/>
  <rect x="168" y="600" width="300" height="68" rx="14" fill="#2a2d2e"/>
  <rect x="168" y="692" width="300" height="68" rx="14" fill="#2a2d2e"/>
  <!-- right (new) panel -->
  <rect x="556" y="232" width="300" height="68" rx="14" fill="#1f3a24"/>
  <rect x="556" y="324" width="300" height="68" rx="14" fill="#2a2d2e"/>
  <rect x="556" y="416" width="300" height="68" rx="14" fill="#2a2d2e"/>
  <rect x="556" y="508" width="300" height="68" rx="14" fill="#1f3a24"/>
  <rect x="556" y="600" width="300" height="68" rx="14" fill="#2a2d2e"/>
  <rect x="556" y="692" width="300" height="68" rx="14" fill="#2a2d2e"/>
  <!-- center divider -->
  <rect x="506" y="200" width="12" height="592" rx="6" fill="#3c3c3c"/>
</svg>
